<svg xmlns="http://www.w3.org/2000/svg" width="512" height="512" viewBox="0 0 512 512"><path fill="#EB43A3" d="M6.998 11.998h499.004v486.004H6.998z"/><path fill="#412534" d="M45.008 51.016h421.987v407.969H45.008z"/><path d="M367 140l-20 90-148-79-13 93-25 113 145 102h161V213zM45.008 51.001h421.987v13.998H45.008z" opacity=".302"/><g fill="#EB43A3"><path d="M199.52 150.998v205.904h-37.576V150.998h37.576zM366.013 140v175.05c0 15.274.611 31.771 1.223 41.853h-33.604l-1.527-23.523h-.611c-8.859 16.497-26.884 26.884-48.574 26.884-35.438 0-63.543-30.244-63.543-76.068-.306-49.796 30.855-79.429 66.599-79.429 20.468 0 35.132 8.554 41.853 19.552h.611V140h37.573zm-37.575 130.142c0-3.055-.306-6.721-.917-9.776-3.36-14.664-15.274-26.578-32.383-26.578-24.134 0-37.575 21.384-37.575 49.185 0 27.188 13.441 47.046 37.271 47.046 15.274 0 28.716-10.387 32.382-26.578.917-3.36 1.223-7.026 1.223-10.998v-22.301z"/></g></svg>